<?xml version="1.0" encoding="UTF-8" standalone="no"?>
<!-- Created with Inkscape (http://www.inkscape.org/) -->

<svg
   xmlns:dc="http://purl.org/dc/elements/1.1/"
   xmlns:cc="http://creativecommons.org/ns#"
   xmlns:rdf="http://www.w3.org/1999/02/22-rdf-syntax-ns#"
   xmlns:svg="http://www.w3.org/2000/svg"
   xmlns="http://www.w3.org/2000/svg"
   xmlns:sodipodi="http://sodipodi.sourceforge.net/DTD/sodipodi-0.dtd"
   xmlns:inkscape="http://www.inkscape.org/namespaces/inkscape"
   width="80"
   height="48"
   id="svg3240"
   version="1.1"
   inkscape:version="0.48.5 r10040"
   sodipodi:docname="1.svg">
  <defs
     id="defs3242" />
  <sodipodi:namedview
     id="base"
     pagecolor="#ffffff"
     bordercolor="#666666"
     borderopacity="1.0"
     inkscape:pageopacity="0.0"
     inkscape:pageshadow="2"
     inkscape:zoom="2.8"
     inkscape:cx="15"
     inkscape:cy="34.285716"
     inkscape:document-units="px"
     inkscape:current-layer="layer1"
     showgrid="false"
     inkscape:window-width="784"
     inkscape:window-height="412"
     inkscape:window-x="2386"
     inkscape:window-y="256"
     inkscape:window-maximized="0" />
  <metadata
     id="metadata3245">
    <rdf:RDF>
      <cc:Work
         rdf:about="">
        <dc:format>image/svg+xml</dc:format>
        <dc:type
           rdf:resource="http://purl.org/dc/dcmitype/StillImage" />
        <dc:title />
      </cc:Work>
    </rdf:RDF>
  </metadata>
  <g
     inkscape:label="Layer 1"
     inkscape:groupmode="layer"
     id="layer1">
    <path
       sodipodi:nodetypes="ccccccccccccccc"
       inkscape:connector-curvature="0"
       id="path147-0-8-1-6"
       d="m 57.138907,1.13e-5 c -9.8183,0.21294 -14.2209,11.2532597 -6.9494,19.8267097 1.0546,1.25053 1.1634,1.968159 -0.768,0.76697 -4.8957,-3.26965 -14.283,-1.1202 -14.7637,8.875679 -0.5938,12.31634 16.6371,15.86501 19.8724,2.76852 0.1708,-1.38178 1.2952,-1.35025 1.0241,0.61112 -0.295,5.32344 -1.9596,10.299 -4.2476,15.15099 3.8563,0 8.166,0 11.6723,0 -2.2879,-4.85199 -3.9526,-9.82755 -4.2476,-15.15099 -0.2711,-1.96137 0.8533,-1.9929 1.0241,-0.61112 3.2353,13.09649 20.4662,9.54782 19.8724,-2.76852 -0.4806,-9.995879 -9.868,-12.145329 -14.7637,-8.875679 -1.9314,1.201189 -1.8226,0.48355 -0.768,-0.76697 7.2715,-8.57345 2.8689,-19.6137497 -6.9493,-19.8267097 0,-6e-5 0,5e-5 -0.01,0 z" />
    <path
       inkscape:connector-curvature="0"
       id="path41-80"
       d="m 1.3755,48 0,-4.104276 3.916073,0 8.3424,-43.8957244 4.748218,0 9.189672,43.8957244 3.162328,0 0,4.104276 -10.775564,0 0,-4.104276 2.908073,0 -1.161309,-6.726808 -10.870836,0 -0.83971,6.726808 2.907928,0 0,4.104276 L 1.3755,48 z M 20.777827,32.377106 16.052009,8.8827342 11.625536,32.377106 l 9.152291,0 z m 0,0" />
  </g>
</svg>
