<?xml version="1.0" encoding="UTF-8" standalone="no"?>
<!-- Created with Inkscape (http://www.inkscape.org/) -->

<svg
   xmlns:dc="http://purl.org/dc/elements/1.1/"
   xmlns:cc="http://creativecommons.org/ns#"
   xmlns:rdf="http://www.w3.org/1999/02/22-rdf-syntax-ns#"
   xmlns:svg="http://www.w3.org/2000/svg"
   xmlns="http://www.w3.org/2000/svg"
   xmlns:sodipodi="http://sodipodi.sourceforge.net/DTD/sodipodi-0.dtd"
   xmlns:inkscape="http://www.inkscape.org/namespaces/inkscape"
   width="80"
   height="48"
   id="svg3240"
   version="1.1"
   inkscape:version="0.48.5 r10040"
   sodipodi:docname="3.svg">
  <defs
     id="defs3242" />
  <sodipodi:namedview
     id="base"
     pagecolor="#ffffff"
     bordercolor="#666666"
     borderopacity="1.0"
     inkscape:pageopacity="0.0"
     inkscape:pageshadow="2"
     inkscape:zoom="2.8"
     inkscape:cx="15"
     inkscape:cy="34.285716"
     inkscape:document-units="px"
     inkscape:current-layer="layer1"
     showgrid="false"
     inkscape:window-width="784"
     inkscape:window-height="412"
     inkscape:window-x="2386"
     inkscape:window-y="256"
     inkscape:window-maximized="0" />
  <metadata
     id="metadata3245">
    <rdf:RDF>
      <cc:Work
         rdf:about="">
        <dc:format>image/svg+xml</dc:format>
        <dc:type
           rdf:resource="http://purl.org/dc/dcmitype/StillImage" />
        <dc:title />
      </cc:Work>
    </rdf:RDF>
  </metadata>
  <g
     inkscape:label="Layer 1"
     inkscape:groupmode="layer"
     id="layer1">
    <path
       style="fill:#d40000;fill-opacity:1"
       inkscape:connector-curvature="0"
       id="path41-87-9"
       d="m 1.375,48 0,-4.10429 3.9160715,0 L 13.633469,0 l 4.748217,0 9.18967,43.89571 3.162326,0 0,4.10429 -10.77556,0 0,-4.10429 2.908071,0 -1.161308,-6.726834 -10.870833,0 -0.8397092,6.726834 2.9079262,0 0,4.10429 L 1.375,48 z M 20.777321,32.377168 16.051505,8.8827319 11.625033,32.377168 l 9.152288,0 z m 0,0" />
    <path
       style="fill:#d40000"
       d="M 57.14244,48 C 51.95623,39.43516 46.5,31.11083 39.6815,24 46.5,16.88917 51.95623,8.56484 57.14244,0 62.32865,8.56484 67.78488,16.88917 74.60338,24 67.78488,31.11083 62.32865,39.43516 57.14244,48 z"
       id="path155-4-1-8-2-8-2-7"
       inkscape:connector-curvature="0" />
  </g>
</svg>
