<?xml version="1.0" encoding="UTF-8" standalone="no"?>
<!-- Created with Inkscape (http://www.inkscape.org/) -->

<svg
   xmlns:dc="http://purl.org/dc/elements/1.1/"
   xmlns:cc="http://creativecommons.org/ns#"
   xmlns:rdf="http://www.w3.org/1999/02/22-rdf-syntax-ns#"
   xmlns:svg="http://www.w3.org/2000/svg"
   xmlns="http://www.w3.org/2000/svg"
   xmlns:sodipodi="http://sodipodi.sourceforge.net/DTD/sodipodi-0.dtd"
   xmlns:inkscape="http://www.inkscape.org/namespaces/inkscape"
   width="223.228"
   height="311.811"
   id="svg3808"
   version="1.1"
   inkscape:version="0.48.5 r10040"
   sodipodi:docname="35.svg">
  <defs
     id="defs3810" />
  <sodipodi:namedview
     id="base"
     pagecolor="#ffffff"
     bordercolor="#666666"
     borderopacity="1.0"
     inkscape:pageopacity="0.0"
     inkscape:pageshadow="2"
     inkscape:zoom="0.49497475"
     inkscape:cx="139.35798"
     inkscape:cy="205.71429"
     inkscape:document-units="px"
     inkscape:current-layer="layer1"
     showgrid="false"
     inkscape:window-width="815"
     inkscape:window-height="462"
     inkscape:window-x="1641"
     inkscape:window-y="74"
     inkscape:window-maximized="0" />
  <metadata
     id="metadata3813">
    <rdf:RDF>
      <cc:Work
         rdf:about="">
        <dc:format>image/svg+xml</dc:format>
        <dc:type
           rdf:resource="http://purl.org/dc/dcmitype/StillImage" />
        <dc:title />
      </cc:Work>
    </rdf:RDF>
  </metadata>
  <g
     inkscape:label="Layer 1"
     inkscape:groupmode="layer"
     id="layer1">
    <g
       id="g6708"
       transform="matrix(0.99553491,0,0,0.99680337,-460.46948,30.845953)">
      <rect
         ry="10.66401"
         rx="10.677597"
         style="fill:#ffffff;fill-opacity:1;stroke:#000000;stroke-width:1.0005666;stroke-miterlimit:4;stroke-opacity:1;stroke-dasharray:none;display:inline"
         id="rect6367-6"
         width="223.22835"
         height="311.81104"
         x="463.03534"
         y="-30.444927" />
      <path
         inkscape:connector-curvature="0"
         id="path6399-9"
         d="m 480.2527,39.5283 c -2.161,-3.5686 -4.4344,-7.0371 -7.2754,-10 2.841,-2.9628 5.1144,-6.4313 7.2754,-10 2.1609,3.5687 4.4343,7.0372 7.2753,10 -2.841,2.9629 -5.1144,6.4314 -7.2753,10 z"
         style="fill:#d40000;display:inline" />
      <path
         style="fill:#d40000;display:inline"
         d="m 669.04725,231.3929 c -2.161,-3.5686 -4.4344,-7.0371 -7.2754,-10 2.841,-2.9628 5.1144,-6.4313 7.2754,-10 2.1609,3.5687 4.4343,7.0372 7.2753,10 -2.841,2.9629 -5.1144,6.4314 -7.2753,10 z"
         id="path6403-1"
         inkscape:connector-curvature="0" />
      <path
         style="fill:#d40000;display:inline"
         d="m 574.6495,149.4606 c -5.1862,-8.5648 -10.6424,-16.8891 -17.4609,-24 6.8185,-7.1108 12.2747,-15.4351 17.4609,-24 5.1863,8.5649 10.6425,16.8892 17.461,24 -6.8185,7.1109 -12.2747,15.4352 -17.461,24 z"
         id="path6413-1"
         inkscape:connector-curvature="0" />
      <path
         style="fill:#d40000;fill-opacity:1"
         inkscape:connector-curvature="0"
         id="path41-87-9-4-8"
         d="m 470.15911,16.3928 0,-2.8217 2.6923,0 5.7354,-30.1783 3.2644,0 6.3179,30.1783 2.1741,0 0,2.8217 -7.4082,0 0,-2.8217 1.9993,0 -0.7984,-4.6247 -7.4737,0 -0.5773,4.6247 1.9992,0 0,2.8217 -7.925,0 z m 13.3391,-10.7407 -3.249,-16.1524 -3.0432,16.1524 6.2922,0 z m 0,0" />
      <path
         style="fill:#d40000;fill-opacity:1"
         inkscape:connector-curvature="0"
         id="path41-8-5-6-1"
         d="m 658.95364,234.5284 0,2.8217 2.6923,0 5.7354,30.1783 3.2644,0 6.3179,-30.1783 2.1741,0 0,-2.8217 -7.4082,0 0,2.8217 1.9993,0 -0.7984,4.6246 -7.4737,0 -0.5773,-4.6246 1.9992,0 0,-2.8217 -7.925,0 z m 13.3391,10.7407 -3.249,16.1524 -3.0432,-16.1524 6.2922,0 z m 0,0" />
    </g>
  </g>
</svg>
